<?xml version="1.0"?>
<svg width="18" height="18" xmlns="http://www.w3.org/2000/svg" xmlns:svg="http://www.w3.org/2000/svg">
 <g class="layer">
  <title>Layer 1</title>
  <rect fill="#A5EFAC" height="17.94" id="svg_15" opacity="0" transform="matrix(1 0 0 1 0 0)" width="17.97" x="-0.02" y="0"/>
  <rect fill="#A5EFAC" height="6.5" id="svg_14" transform="matrix(1 0 0 1 0 0)" width="1.66" x="0.05" y="5.25"/>
  <rect fill="#A5EFAC" height="6.53" id="svg_17" width="1.84" x="16.14" y="5.25"/>
  <rect fill="#A5EFAC" height="1.09" id="svg_19" transform="matrix(1 0 0 1 0 0)" width="17.88" x="0.05" y="10.69"/>
  <rect fill="#A5EFAC" height="1.63" id="svg_20" transform="matrix(1 0 0 1 0 0)" width="14.56" x="1.67" y="5.22"/>
  <rect fill="#A5EFAC" height="4.09" id="svg_21" transform="matrix(1 0 0 1 0 0)" width="1.13" x="5.77" y="6.84"/>
  <rect fill="#A5EFAC" height="3.88" id="svg_22" transform="matrix(1 0 0 1 0 0)" width="1.13" x="10.95" y="6.78"/>
 </g>
</svg>