<?xml version="1.0"?>
<svg width="18" height="18" xmlns="http://www.w3.org/2000/svg" xmlns:svg="http://www.w3.org/2000/svg">
 <g class="layer">
  <title>Layer 1</title>
  <rect fill="#A5EFAC" height="17.94" id="svg_15" opacity="0" transform="matrix(1 0 0 1 0 0)" width="17.97" x="-0.02" y="0"/>
  <rect fill="#A5EFAC" height="17.91" id="svg_14" transform="matrix(1 0 0 1 0 0)" width="1.66" x="0.05" y="0.06"/>
  <rect fill="#A5EFAC" height="17.91" id="svg_17" transform="matrix(1 0 0 1 0 0)" width="1.84" x="16.14" y="0.03"/>
  <rect fill="#A5EFAC" height="1.16" id="svg_18" width="18.03" x="-0.05" y="0.03"/>
  <rect fill="#A5EFAC" height="1.09" id="svg_19" width="17.88" x="-0.05" y="16.84"/>
  <rect fill="#A5EFAC" height="1.63" id="svg_20" width="14.56" x="1.64" y="11.56"/>
  <rect fill="#A5EFAC" height="4.09" id="svg_21" width="1.13" x="5.83" y="12.81"/>
  <rect fill="#A5EFAC" height="3.88" id="svg_22" width="1.13" x="10.89" y="13.16"/>
  <rect fill="#ffffff" height="3.56" id="svg_25" width="3.94" x="6.95" y="13.22"/>
  <rect fill="#ffffff" height="3.69" id="svg_26" width="4.09" x="1.67" y="13.19"/>
  <rect fill="#ffffff" height="3.72" id="svg_27" width="4.22" x="11.95" y="13.16"/>
 </g>
</svg>